PathFileType	4	(X/Y/Z)	c:/Users/goper/Files/vsCode/490R/osim_files/A04/A04_Slow_04.trc
DataRate	CameraRate	NumFrames	NumMarkers	Units                	OrigDataRate	OrigDataStartFrame	OrigNumFrames
120.00	120.00	7	36	mm	120.0	850	1133
                Frame#	Time	LPSIS			LASIS			LTH1			LTH2			LTH3			LTH4			LLFE			LMFE			LSH1			LSH2			LSH3			LSH4			LLMAL			LMMAL			LCAL			LMTP5			LTOE			LMTP1			RPSIS			RASIS			RTH1			RTH2			RTH3			RTH4			RLFE			RMFE			RSH1			RSH2			RSH3			RSH4			RLMAL			RMMAL			RCAL			RMTP1			RTOE			RMTP5		
		X1	Y1	Z1	X2	Y2	Z2	X3	Y3	Z3	X4	Y4	Z4	X5	Y5	Z5	X6	Y6	Z6	X7	Y7	Z7	X8	Y8	Z8	X9	Y9	Z9	X10	Y10	Z10	X11	Y11	Z11	X12	Y12	Z12	X13	Y13	Z13	X14	Y14	Z14	X15	Y15	Z15	X16	Y16	Z16	X17	Y17	Z17	X18	Y18	Z18	X19	Y19	Z19	X20	Y20	Z20	X21	Y21	Z21	X22	Y22	Z22	X23	Y23	Z23	X24	Y24	Z24	X25	Y25	Z25	X26	Y26	Z26	X27	Y27	Z27	X28	Y28	Z28	X29	Y29	Z29	X30	Y30	Z30	X31	Y31	Z31	X32	Y32	Z32	X33	Y33	Z33	X34	Y34	Z34	X35	Y35	Z35	X36	Y36	Z36

850	7.07500	-3068.53418	1032.66980	376.56940	0.00000	0.00000	0.00000	-3128.35034	691.06427	490.68631	-3120.20581	647.03870	489.38812	-3187.70947	677.79047	491.05972	-3171.76733	634.05536	490.46054	-3109.22290	511.12918	487.59454	-3142.64648	500.48605	352.34473	-3027.42847	445.03754	480.82153	-3008.27734	405.33630	475.78448	-3079.69189	413.26187	475.58102	-3053.95361	378.88474	470.60806	-2830.07153	181.37254	417.16046	-2863.90479	172.30695	335.17783	-2762.95142	171.67844	351.07724	-2924.50342	71.90664	469.82861	-2979.33228	68.57066	414.74243	-2965.34399	61.23904	368.77420	-3066.69580	1020.82562	270.33990	0.00000	0.00000	0.00000	0.00000	0.00000	0.00000	-3303.68262	665.02911	135.33960	-3340.12646	726.99615	122.95216	0.00000	0.00000	0.00000	0.00000	0.00000	0.00000	-3419.53174	557.68903	264.25931	-3369.55469	341.74542	160.40582	0.00000	0.00000	0.00000	-3431.81958	343.39694	153.11969	-3430.65503	295.97705	159.53796	-3413.24023	102.41483	168.30885	-3445.40356	120.27992	301.15347	0.00000	0.00000	0.00000	-3578.09790	77.70544	275.33502	-3597.04053	99.57014	227.31087	-3563.90308	64.83645	158.16428
851	7.08333	-3077.49268	1033.60803	375.16116	0.00000	0.00000	0.00000	-3141.48120	690.64178	491.52243	-3133.77759	646.43158	490.46814	-3200.92432	678.15778	491.81323	-3187.48389	635.86578	491.85980	-3126.21606	510.16461	489.71817	-3158.10132	498.33102	354.17014	-3040.43237	445.89566	481.06558	-3020.89893	406.74600	476.73236	-3092.41162	412.59534	476.74054	-3065.66992	378.99219	471.68842	-2836.77515	187.75087	416.81998	-2870.82275	177.37480	335.01138	-2770.36841	180.88145	350.35367	-2926.97095	74.12415	469.64835	-2981.76343	68.60985	414.84525	-2968.21240	62.17723	368.86197	-3075.67383	1021.60809	268.85043	0.00000	0.00000	0.00000	0.00000	0.00000	0.00000	-3329.40234	661.94141	124.96577	-3347.02661	726.91302	121.75896	0.00000	0.00000	0.00000	0.00000	0.00000	0.00000	-3425.49951	556.84216	263.36777	0.00000	0.00000	0.00000	0.00000	0.00000	0.00000	-3435.66992	342.83813	152.46556	-3433.97656	295.49741	158.93164	0.00000	0.00000	0.00000	-3446.01367	119.15265	301.09103	-3356.40112	57.72658	252.20917	-3578.82520	76.08458	275.47214	-3597.98706	97.70035	227.28464	-3564.52002	63.29090	158.10953
852	7.09167	-3086.23169	1034.66711	373.73294	0.00000	0.00000	0.00000	-3155.70044	689.84650	493.38153	-3148.10229	645.69269	491.73123	-3214.65063	678.38129	492.56320	-3202.20825	635.67999	492.97134	-3142.32129	508.59659	491.43018	-3174.19019	496.06125	355.90070	-3054.66138	446.72165	482.24304	-3034.09302	407.99539	477.72864	-3105.77686	411.95169	478.05191	-3078.19897	379.14081	472.84720	-2845.37842	194.16112	416.60883	-2878.98022	182.82516	335.13760	-2779.04102	190.29318	349.59412	-2929.54028	76.67097	469.32010	-2984.70166	69.08046	415.05588	-2971.29468	63.23875	368.85257	-3084.43286	1022.38495	267.54453	0.00000	0.00000	0.00000	0.00000	0.00000	0.00000	-3336.07959	662.21429	123.80973	-3354.07324	727.21997	120.71745	0.00000	0.00000	0.00000	0.00000	0.00000	0.00000	-3430.40674	556.27814	262.92078	0.00000	0.00000	0.00000	0.00000	0.00000	0.00000	-3439.31616	342.36642	151.98264	-3437.10962	294.99896	158.53171	-3415.30713	101.89295	168.06160	-3447.07764	118.82180	300.93695	0.00000	0.00000	0.00000	-3579.47510	74.67371	275.66306	-3598.97900	96.09502	227.38028	-3565.05688	61.93808	158.19048
853	7.10000	-3094.94995	1035.79883	372.40991	0.00000	0.00000	0.00000	-3169.13379	688.34473	493.14514	-3163.89697	644.49365	493.01813	-3229.01514	678.61157	493.27216	-3216.72144	635.73804	493.90381	-3157.30542	506.35641	492.70105	-3191.01904	493.70007	357.64011	-3069.51416	447.49722	483.40936	-3048.47559	409.40930	478.95853	-3118.76025	411.40060	479.24878	-3090.83545	379.50931	473.95325	-2854.93262	200.48314	416.34476	-2888.31079	188.80864	334.95337	-2788.23389	200.13271	348.93582	-2933.11646	79.84960	468.87064	-2988.20288	69.55623	415.23450	-2974.81055	64.55977	368.64084	-3093.25854	1023.89874	266.07025	0.00000	0.00000	0.00000	-3303.82959	704.41046	133.00925	-3322.71777	666.68011	132.07204	-3360.97192	727.67145	119.82443	0.00000	0.00000	0.00000	0.00000	0.00000	0.00000	-3434.90527	556.13409	262.84485	0.00000	0.00000	0.00000	0.00000	0.00000	0.00000	-3442.67358	341.95502	151.52142	-3439.89331	294.64667	158.12918	0.00000	0.00000	0.00000	-3448.03296	118.56742	300.81107	-3352.61401	60.35962	251.05118	-3580.05273	73.44028	275.81436	-3599.79175	94.60460	227.38692	-3565.63232	60.66620	158.24780
854	7.10833	-3103.32983	1037.10449	370.99399	0.00000	0.00000	0.00000	-3183.93188	688.16150	494.75192	-3179.50293	643.30048	494.27734	-3243.72510	678.64771	493.91992	-3232.42407	635.64417	494.84024	-3175.95898	505.15579	494.89999	-3208.41772	491.24823	359.44714	-3084.96069	448.96494	486.41061	-3062.24170	410.86707	479.70340	-3133.83618	410.86307	480.73682	-3104.49438	379.60944	475.03229	-2863.53687	208.19513	415.65652	-2897.75073	194.66037	334.85403	-2798.30933	210.19662	348.18912	-2936.68457	83.25100	468.10922	-2992.00830	69.86235	415.20480	-2978.88281	65.92677	368.46869	-3101.94458	1025.11938	264.68643	0.00000	0.00000	0.00000	-3310.32764	705.42859	131.80627	0.00000	0.00000	0.00000	-3367.95239	728.28259	119.05142	0.00000	0.00000	0.00000	0.00000	0.00000	0.00000	-3439.24121	556.72406	262.52121	0.00000	0.00000	0.00000	0.00000	0.00000	0.00000	-3445.85938	341.61020	151.24188	-3442.66821	294.33096	157.86731	0.00000	0.00000	0.00000	-3448.94946	118.30379	300.69272	-3352.75928	60.92695	250.90077	-3580.51465	72.30612	275.97855	-3600.51147	93.28334	227.44716	-3566.02588	59.57777	158.30318
855	7.11667	-3111.55322	1038.54297	369.64999	-3338.21680	995.33319	451.44144	-3199.50342	687.50311	495.54800	-3195.38208	642.06763	495.30954	-3257.26562	678.11987	493.99283	-3249.09766	635.31097	495.77408	-3193.38647	503.44778	496.61041	-3226.16187	488.71671	361.23236	-3101.00366	450.02884	487.78998	-3076.26855	412.71021	480.55820	-3150.98950	408.57376	480.32489	-3118.28247	380.11951	476.02484	-2872.97729	215.55927	415.46152	-2907.98022	200.61101	335.05978	-2809.30737	220.53316	347.47195	-2940.92407	86.79706	467.43564	-2996.46704	70.33764	415.42792	-2983.49341	67.54417	368.44504	-3110.35327	1026.98010	263.25098	0.00000	0.00000	0.00000	0.00000	0.00000	0.00000	-3335.45288	668.50269	130.16849	-3374.70117	728.91187	118.33346	0.00000	0.00000	0.00000	0.00000	0.00000	0.00000	-3442.86548	556.74017	262.45441	0.00000	0.00000	0.00000	0.00000	0.00000	0.00000	-3448.65723	341.33252	150.93938	-3445.20728	294.12393	157.65150	0.00000	0.00000	0.00000	-3449.74634	118.16284	300.60422	-3353.29614	61.40713	250.83058	-3580.90698	71.30367	276.14786	-3601.15527	92.16350	227.59734	-3563.01196	55.46764	158.37198
856	7.12500	-3119.72339	1039.78198	368.25589	-3342.89258	995.49976	449.70154	-3213.81079	685.73248	496.16122	-3210.54102	640.86182	496.06641	-3274.26123	678.63013	495.21603	-3264.71021	635.22107	496.48361	-3211.04321	501.79883	498.45099	-3244.37476	485.97842	363.13593	-3117.21289	451.02869	489.00723	-3092.16479	413.94040	481.75824	-3165.44116	408.07367	481.81961	-3132.84351	380.44485	477.56979	-2884.81860	222.47765	415.30841	-2918.79150	206.50508	335.26129	-2821.93628	230.79167	346.73099	-2945.56714	90.55924	466.79337	-3001.27002	70.85429	415.62772	-2988.25073	68.94648	367.67523	-3118.69604	1028.20752	261.95932	0.00000	0.00000	0.00000	-3322.82446	707.76300	129.63330	-3341.09009	670.37634	129.08578	-3381.26611	729.61127	117.72436	0.00000	0.00000	0.00000	0.00000	0.00000	0.00000	-3446.14307	556.04266	262.94873	0.00000	0.00000	0.00000	0.00000	0.00000	0.00000	-3451.33057	341.11652	150.82123	-3447.53467	293.99066	157.47142	-3418.70557	101.77764	167.98349	-3451.13989	118.56293	301.41675	-3353.41309	61.89679	250.69702	-3581.20776	70.43114	276.42673	-3601.68799	91.27077	227.86005	-3563.52661	55.12677	158.58331
